<?xml version="1.0" standalone="no"?>
<!DOCTYPE svg PUBLIC "-//W3C//DTD SVG 20010904//EN"
 "http://www.w3.org/TR/2001/REC-SVG-20010904/DTD/svg10.dtd">
<svg version="1.0" xmlns="http://www.w3.org/2000/svg"
 width="132.000000pt" height="132.000000pt" viewBox="0 0 132.000000 132.000000"
 preserveAspectRatio="xMidYMid meet">
<metadata>
Created by potrace 1.14, written by Peter Selinger 2001-2017
</metadata>
<g transform="translate(0.000000,132.000000) scale(0.100000,-0.100000)"
fill="#000000" stroke="none">
<path d="M300 983 c-8 -3 -22 -7 -30 -9 -8 -3 -15 -4 -15 -3 0 6 -93 -57 -119
-80 -82 -76 -120 -220 -80 -302 7 -15 10 -29 7 -33 -4 -3 -1 -6 5 -6 7 0 12
-6 12 -14 0 -29 87 -106 154 -136 54 -25 84 -32 147 -34 44 -1 82 0 84 3 3 3
11 6 18 7 7 1 17 3 22 5 6 2 25 -5 43 -15 57 -30 106 -35 143 -16 34 19 30 27
-63 133 -62 72 -152 104 -221 78 -24 -9 -26 -13 -17 -36 10 -26 9 -26 -28 -19
-92 17 -159 80 -166 159 -13 158 208 245 332 130 45 -42 64 -108 47 -158 l-13
-38 43 -20 c23 -11 52 -29 64 -40 l22 -20 21 48 c30 64 29 160 -1 223 -27 57
-51 97 -51 88 0 -4 -13 6 -30 24 -16 17 -30 27 -30 22 0 -5 -4 -3 -8 3 -18 28
-128 60 -203 61 -41 0 -81 -2 -89 -5z"/>
<path d="M694 966 c9 -49 47 -102 86 -118 39 -17 50 -19 135 -24 119 -7 140
-12 153 -37 28 -54 -4 -84 -94 -92 -93 -7 -110 -11 -138 -32 -28 -21 -62 -70
-58 -84 1 -5 -2 -9 -6 -9 -12 0 -18 -83 -11 -162 4 -46 14 -49 23 -7 12 62 71
116 135 124 14 2 57 4 94 6 127 4 217 66 244 169 21 78 -22 193 -87 236 -66
44 -114 52 -304 54 l-177 1 5 -25z"/>
</g>
</svg>
